<svg width="50" height="51" viewBox="0 0 50 51" fill="none" xmlns="http://www.w3.org/2000/svg">
<path d="M41.8606 6.97034C42.0998 6.48963 42.0998 6.48963 43.2958 3.36499C40.3058 3.00446 38.6314 2.7641 36.0001 2.7641C32.5317 1.0816 28.824 0 24.7576 0C11.123 0.120178 0 11.4169 0 25.3576C0 39.2983 11.123 50.5951 24.7576 50.5951C38.5118 50.5951 49.5151 39.2983 49.5151 25.3576C49.6347 18.1469 46.6447 11.6573 41.8606 6.97034Z" fill="white"/>
<path d="M40.0664 10.5757H39.8272C38.7508 11.7775 37.5548 12.8591 36.3588 13.7003C33.7275 15.3828 30.7375 16.3442 27.6279 16.3442C21.7674 16.3442 18.5381 13.46 15.9069 11.4169L15.7873 11.2967C15.7873 11.2967 15.7873 11.1766 15.9069 11.1766C20.093 7.93176 23.4418 5.88873 26.9103 4.68694C27.0299 4.68694 27.0299 4.56677 27.0299 4.44659C27.0299 4.32641 26.9103 4.32641 26.7906 4.20623C26.1926 4.20623 25.5946 4.20623 24.877 4.20623C13.1561 3.8457 3.70752 13.46 3.70752 25.3576C3.70752 31.8472 6.57796 37.736 11.1228 41.7019H11.362C11.362 41.7019 11.4816 41.7019 11.4816 41.5817L12.3188 38.8176C12.3188 38.6974 12.4384 38.6974 12.558 38.6974C23.8006 41.2211 28.7043 34.9719 27.8671 31.1262C27.1495 27.8813 21.887 24.8769 14.1129 29.4437H13.9933C13.9933 29.4437 13.8737 29.3235 13.8737 29.2033L16.5049 15.6232C16.5049 15.6232 16.5049 15.503 16.6245 15.503H16.8637C17.5813 15.9837 19.8538 17.4258 22.2458 18.868C22.2458 18.868 22.3654 18.9882 22.3654 19.1083C22.3654 19.7092 22.0066 21.8724 21.887 22.7137V22.954H22.1262C35.0432 19.4689 37.794 27.641 37.4352 31.6069C36.598 40.6202 26.9103 45.3072 18.2989 45.4274C18.1793 45.4274 18.0597 45.4274 18.0597 45.5476C18.0597 45.6677 18.0597 45.7879 18.1793 45.7879C20.3322 46.509 22.485 46.8695 24.7574 46.8695C36.3588 46.8695 45.8073 37.2553 45.8073 25.3576C45.9269 19.5891 43.6545 14.3012 40.0664 10.5757Z" fill="#E61801"/>
<path d="M19.3755 11.1766C26.3124 16.5846 36.5981 13.8205 40.0666 5.40802C33.7277 8.41248 26.6712 10.4555 19.3755 11.1766Z" fill="#78B617"/>
<path d="M19.3755 11.1766C26.6712 10.4555 33.6081 8.53264 39.947 5.408C32.8905 4.56676 25.4752 6.36943 19.3755 11.1766Z" fill="#28A62A"/>
</svg>
