<svg width="36" height="44" viewBox="0 0 36 44" fill="none" xmlns="http://www.w3.org/2000/svg">
<path d="M0.5 42L2 4L6 0L10 4L15 0L19 4L23 0L27 4L31.5 0L35.5 4L33.5 43.5L28.5 39L25 42L21 39L17.5 41.8491L13.5 39L10 42L5.5 39L0.5 42Z" fill="white"/>
<path d="M22.8 20.8174H19.3929V17.4123C19.3929 16.6019 18.7363 15.9434 17.9259 15.9434C17.1156 15.9434 16.457 16.6019 16.457 17.4123V20.8174H13.0519C12.2415 20.8174 11.585 21.4759 11.585 22.2863C11.585 23.0967 12.2415 23.7552 13.0519 23.7552H16.457V27.1584C16.457 27.9687 17.1156 28.6273 17.9259 28.6273C18.7363 28.6273 19.3929 27.9687 19.3929 27.1584V23.7552H22.8C23.6103 23.7552 24.2689 23.0967 24.2689 22.2863C24.2689 21.4759 23.6103 20.8174 22.8 20.8174Z" fill="#003087"/>
</svg>
