<svg width="48" height="47" viewBox="0 0 48 47" fill="none" xmlns="http://www.w3.org/2000/svg">
<path d="M22.6324 0C23.7596 0 24.8803 0 26.0075 0C26.0393 0.0748731 26.1094 0.0561548 26.173 0.0623943C27.0327 0.131028 27.8797 0.237098 28.7266 0.399323C33.8974 1.39763 38.3105 3.77485 41.8192 7.62458C46.8436 13.1402 48.7858 19.623 47.6587 26.9294C46.8308 32.289 44.3027 36.8313 40.1826 40.4315C34.2986 45.5665 27.3957 47.4009 19.6649 46.0158C14.7361 45.1298 10.5141 42.8524 7.09449 39.2647C1.57343 33.4745 -0.464335 26.6049 0.95573 18.8244C1.94277 13.446 4.69375 8.99102 8.94758 5.4595C12.5009 2.50825 16.6083 0.754971 21.2315 0.168464C21.6963 0.11231 22.1739 0.118549 22.6324 0ZM34.1458 18.762C34.1458 17.0024 34.1458 15.2492 34.1458 13.4896C34.1458 12.4414 33.6427 11.9547 32.5601 11.9547C27.1473 11.9547 21.7345 11.9547 16.3217 11.9547C16.2071 11.9547 16.0861 11.961 15.9715 11.9672C15.7677 11.9797 15.583 12.0359 15.5321 12.2542C15.4748 12.4913 15.4875 12.7472 15.7295 12.8595C16.258 13.1028 16.3408 13.5458 16.3345 14.0262C16.3154 16.0291 16.4109 18.0382 16.2517 20.041C16.1116 21.7631 15.5958 23.3479 14.526 24.758C14.1757 25.226 13.8255 25.5317 13.2078 25.4069C13.1186 25.3882 13.0167 25.4132 12.9212 25.4257C12.2271 25.5193 11.7495 26.0371 11.7495 26.7235C11.7431 29.3752 11.7495 32.027 11.7431 34.6787C11.7431 34.8784 11.7877 34.947 12.0042 34.947C13.3733 34.9346 14.7425 34.947 16.1116 34.9408C17.1241 34.9346 17.6335 34.4167 17.6399 33.4309C17.6463 32.888 17.6399 32.3514 17.6526 31.8086C17.6654 31.3157 18.1557 30.7292 18.7543 30.7292C19.9388 30.7292 21.1296 30.7167 22.3204 30.7167C24.5619 30.7229 26.7971 30.7167 29.0386 30.7167C29.2934 30.7167 29.5481 30.7229 29.8028 30.7417C30.325 30.7791 30.7453 31.2907 30.7644 31.9209C30.7835 32.47 30.7644 33.0253 30.7707 33.5744C30.7771 34.348 31.3056 34.9034 32.1016 34.9158C33.6936 34.9346 35.2857 34.9283 36.8777 34.9283C37.126 34.9283 37.3935 34.9221 37.4699 34.6226C37.5399 34.3231 37.4762 34.0673 37.1578 33.9238C36.8522 33.7865 36.7439 33.5182 36.7057 33.2187C36.6802 33.0128 36.6675 32.8069 36.6675 32.5948C36.6675 30.6106 36.6675 28.6203 36.6675 26.6361C36.6675 26.4489 36.6611 26.2618 36.6357 26.0746C36.5847 25.6628 36.3682 25.4693 35.9416 25.4444C35.6868 25.4319 35.4321 25.4444 35.1774 25.4319C34.496 25.3945 34.2158 25.1199 34.1394 24.4523C34.1012 24.1466 34.1458 23.8533 34.1458 23.5476C34.1458 21.9628 34.1458 20.3655 34.1458 18.762Z" fill="#F16522"/>
<path d="M20.9004 25.3508C21.1933 24.9015 21.4671 24.4398 21.6837 23.9469C22.3332 22.4369 22.5242 20.8459 22.5688 19.2299C22.5879 18.5872 22.5815 17.9446 22.5688 17.2957C22.5624 17.0897 22.607 17.0086 22.8426 17.0086C24.0526 17.0211 25.2625 17.0086 26.466 17.0149C27.3767 17.0211 27.6823 17.3331 27.6823 18.2316C27.6823 20.2344 27.6823 22.2435 27.6823 24.2464C27.6823 25.0825 27.3639 25.4007 26.517 25.4007C24.7339 25.4069 22.9573 25.4007 21.1742 25.4007C21.0851 25.4069 20.9959 25.4319 20.9004 25.3508Z" fill="#F16522"/>
</svg>
