<svg width="30" height="29" viewBox="0 0 30 29" fill="none" xmlns="http://www.w3.org/2000/svg">
<path d="M29.2172 7.48322C29.2172 11.9334 29.2172 16.4675 29.2172 20.9177V21.0017C29.1332 21.3376 29.1332 21.6734 29.0492 22.0093C28.7973 23.4367 28.1256 24.6122 27.202 25.7038C25.9425 27.1312 24.2632 27.9709 22.4159 28.2227C22.248 28.2227 21.9961 28.3067 21.8282 28.3067C17.378 28.3067 12.8438 28.3067 8.39362 28.3067H8.30966C7.7219 28.3067 7.2181 28.1388 6.63034 28.0548C5.45482 27.719 4.44723 27.1312 3.5236 26.3755C2.09618 25.116 1.25652 23.4367 1.00463 21.5895C1.00463 21.4215 0.920654 21.1696 0.920654 21.0017C0.920654 16.5515 0.920654 12.0174 0.920654 7.56719C0.920654 7.48322 0.920654 7.48322 0.920654 7.39925C0.920654 7.14736 1.00463 6.81149 1.00463 6.5596C1.34049 4.71235 2.18015 3.20097 3.60757 2.02545C4.78309 1.01786 6.12655 0.346135 7.7219 0.178204C7.88983 0.178204 8.14173 0.0942383 8.30966 0.0942383C12.7599 0.0942383 17.294 0.0942383 21.7442 0.0942383H21.8282C22.164 0.178204 22.5839 0.178204 22.9197 0.26217C24.2632 0.514067 25.4387 1.18579 26.4463 2.02545C27.8737 3.28493 28.7973 4.96425 29.0492 6.89546C29.2172 7.14736 29.2172 7.31529 29.2172 7.48322ZM15.1109 22.9329C19.897 22.9329 23.7594 19.0705 23.7594 14.2844C23.7594 9.4984 19.897 5.63597 15.1949 5.63597C10.3248 5.55201 6.37845 9.4984 6.46241 14.2844C6.46241 19.0705 10.3248 22.9329 15.1109 22.9329ZM26.1104 4.96425C26.1104 3.78873 25.1868 2.86511 24.0113 2.86511C22.8358 2.86511 21.9121 3.78873 21.9121 4.96425C21.9121 6.13977 22.8358 7.06339 24.0113 7.06339C25.1868 7.06339 26.1104 6.13977 26.1104 4.96425Z" fill="white"/>
<path d="M15.111 18.9865C12.5081 18.9865 10.4089 16.8874 10.4089 14.2844C10.4089 11.6815 12.5081 9.58234 15.111 9.58234C17.7139 9.58234 19.8131 11.6815 19.8131 14.2844C19.8131 16.8034 17.7139 18.9865 15.111 18.9865Z" fill="white"/>
</svg>
