<svg width="49" height="46" viewBox="0 0 49 46" fill="none" xmlns="http://www.w3.org/2000/svg">
<path d="M18.3315 45.7108C17.1738 45.8393 16.0123 45.9417 14.8494 46H14.8465C14.8335 45.9943 0.205699 39.5842 0.382448 25.8301C0.517867 15.1522 5.47758 12.0318 5.47758 12.0318C5.47758 12.0318 9.23917 13.6129 12.0063 16.5666C14.3418 19.0574 15.7228 22.2241 15.7228 22.2241C15.7228 22.2241 17.068 14.7605 24.187 8.69299C34.6256 -0.78357 45.9061 0.0167082 45.9061 0.0167082C45.9061 0.0167082 48.299 5.46496 48.3786 12.9144C48.5596 30.3127 38.0269 42.8768 21.6451 45.2776C20.5439 45.4408 19.4379 45.5883 18.3314 45.7108H18.3315Z" fill="#EE1E23"/>
<path d="M3.38086 27.9935C3.38086 35.557 7.92573 42.0602 14.4555 44.9962C13.9218 43.426 12.4332 38.1156 13.7794 31.0729C13.635 30.9595 13.845 29.296 13.983 28.3694C14.1654 27.1377 14.3659 26.032 14.5957 24.9952C12.5238 21.9876 9.70832 19.5208 6.40142 17.8653C4.49432 20.782 3.38086 24.2594 3.38086 27.9935ZM16.2986 24.1216C15.6755 25.4986 14.9304 27.4568 14.1801 30.1881C14.1602 30.263 14.144 30.3403 14.1185 30.4148C13.9379 30.9426 13.8345 31.1155 13.7794 31.0729C12.4332 38.1156 13.9218 43.426 14.4555 44.9962C14.495 45.0131 16.1631 44.9737 16.9163 44.8805C31.2686 43.1143 42.3809 31.006 42.3809 16.3223C42.3809 13.4271 41.9483 10.6346 41.1428 8C30.2116 8.47433 20.852 14.9214 16.2986 24.1216Z" fill="url(#paint0_linear)"/>
<defs>
<linearGradient id="paint0_linear" x1="3.38086" y1="17.8653" x2="3.38086" y2="44.9962" gradientUnits="userSpaceOnUse">
<stop stop-color="#00A13A"/>
<stop offset="0.78" stop-color="#95C11F"/>
<stop offset="1" stop-color="#95C11F"/>
</linearGradient>
</defs>
</svg>
