<svg width="110" height="24" viewBox="0 0 110 24" fill="none" xmlns="http://www.w3.org/2000/svg">
<g clip-path="url(#clip0)">
<path fill-rule="evenodd" clip-rule="evenodd" d="M13.1911 0.0647159C10.7243 -0.191958 8.23747 0.312371 6.07255 1.50838C3.90762 2.70439 2.17086 4.53337 1.10098 6.74393C0.0311032 8.95448 -0.319374 11.4381 0.0977242 13.8534C0.514823 16.2687 1.67902 18.4971 3.4303 20.2323C5.18158 21.9675 7.43397 23.1243 9.87787 23.5438C12.3218 23.9633 14.8372 23.6247 17.0784 22.5748C19.3197 21.5248 21.1767 19.815 22.3942 17.6803C23.6117 15.5455 24.13 13.0907 23.8777 10.6533C23.6002 7.94385 22.3859 5.41166 20.4395 3.48305C18.493 1.55445 15.9332 0.347251 13.1911 0.0647159ZM12.8021 18.1353C11.4753 18.3112 10.1261 18.0719 8.94416 17.4512C7.76218 16.8305 6.80681 15.8595 6.21233 14.6748C5.61785 13.4901 5.41414 12.1511 5.62984 10.8462C5.84554 9.54117 6.46979 8.33575 7.41487 7.39931C8.35995 6.46286 9.57835 5.84247 10.8988 5.62533C12.2193 5.40819 13.5754 5.60522 14.7767 6.18871C15.978 6.77221 16.9639 7.71285 17.596 8.87842C18.2281 10.044 18.4745 11.3759 18.3007 12.687C18.1183 14.066 17.4807 15.3472 16.4867 16.3321C15.4926 17.317 14.1976 17.9508 12.8021 18.1353ZM30.2996 0.5339C29.8831 0.534884 29.4722 0.627559 29.0966 0.80518C28.721 0.9828 28.3902 1.2409 28.1283 1.5607C27.8664 1.88049 27.6799 2.25394 27.5825 2.65387C27.4851 3.05379 27.4792 3.47014 27.5652 3.87261C27.8287 5.17647 29.0616 6.06735 30.4048 6.06735H38.1992L26.0693 21.9233C25.9796 22.0404 25.9246 22.1798 25.9107 22.3259C25.8967 22.4721 25.9242 22.6192 25.9901 22.7508C26.056 22.8824 26.1577 22.9933 26.2838 23.0709C26.41 23.1486 26.5555 23.1901 26.7041 23.1907H45.7311C47.0733 23.1907 48.3072 22.3 48.5707 20.9959C48.6567 20.5935 48.6508 20.1772 48.5535 19.7773C48.4562 19.3775 48.2699 19.004 48.0081 18.6842C47.7463 18.3644 47.4156 18.1062 47.0402 17.9285C46.6647 17.7508 46.2538 17.6579 45.8375 17.6567H36.3405L48.4611 1.81312C48.5517 1.69493 48.6072 1.55414 48.6213 1.40655C48.6354 1.25897 48.6076 1.11042 48.541 0.977573C48.4743 0.844729 48.3716 0.732846 48.2442 0.654478C48.1168 0.576109 47.9698 0.534355 47.8197 0.5339H30.2996ZM106.33 0.597726C105.7 0.745683 105.14 1.10156 104.743 1.60652C104.346 2.11147 104.135 2.73526 104.145 3.37476V12.5878L89.0314 0.707912C88.9128 0.614982 88.7702 0.556989 88.6198 0.540604C88.4694 0.524219 88.3173 0.550107 88.1811 0.615291C88.045 0.680474 87.9302 0.782305 87.85 0.909068C87.7698 1.03583 87.7275 1.18238 87.7279 1.33185V20.3547C87.7176 20.9942 87.9286 21.618 88.326 22.123C88.7234 22.628 89.2834 22.9838 89.9133 23.1318C90.3224 23.2207 90.7464 23.2177 91.1542 23.1232C91.5619 23.0286 91.943 22.8448 92.2692 22.5854C92.5955 22.3259 92.8586 21.9975 93.0392 21.6242C93.2198 21.2509 93.3133 20.8423 93.3127 20.4286V11.1359L108.426 23.016C108.545 23.1088 108.687 23.1668 108.838 23.1832C108.988 23.1995 109.14 23.1737 109.276 23.1085C109.412 23.0433 109.527 22.9416 109.607 22.8149C109.687 22.6881 109.73 22.5417 109.729 22.3923V3.29995C109.73 2.88634 109.636 2.4779 109.456 2.10475C109.275 1.7316 109.012 1.40326 108.686 1.14393C108.359 0.884594 107.978 0.700891 107.571 0.606359C107.163 0.511826 106.739 0.508877 106.33 0.597726ZM66.9789 5.5377C73.3715 5.5377 78.148 8.87462 78.148 11.8595C78.148 14.8443 73.3715 18.1812 66.9789 18.1812C60.5863 18.1812 55.8098 14.8443 55.8098 11.8595C55.8098 8.87462 60.5863 5.5377 66.9789 5.5377ZM66.9789 0.00447228C57.7259 0.00447228 50.2251 5.31218 50.2251 11.8595C50.2251 18.4068 57.7259 23.7145 66.9789 23.7145C76.2319 23.7145 83.7325 18.4068 83.7325 11.8595C83.7325 5.31218 76.2317 0.00447228 66.9789 0.00447228Z" fill="#0069FF"/>
</g>
<defs>
<clipPath id="clip0">
<rect width="109.729" height="23.7252" fill="white"/>
</clipPath>
</defs>
</svg>
