<svg width="48" height="47" viewBox="0 0 48 47" fill="none" xmlns="http://www.w3.org/2000/svg">
<circle cx="24.4452" cy="23.4762" r="23.4762" fill="#29562F"/>
<path d="M29.7697 16.0282L24.4652 21.3327L19.1607 16.0282C16.2293 13.0968 16.2293 8.35067 19.1607 5.43668C22.0922 2.50524 26.8383 2.50524 29.7697 5.43668C32.7012 8.36811 32.7012 13.1143 29.7697 16.0282Z" fill="#65B32E"/>
<path d="M19.1609 30.93L24.4654 25.6255L29.7699 30.93C32.7013 33.8614 32.7013 38.6075 29.7699 41.539C26.8384 44.4704 22.0923 44.4704 19.1783 41.539C16.2469 38.6075 16.2469 33.8614 19.1609 30.93Z" fill="white"/>
<path d="M31.9161 28.7831L26.6116 23.4786L31.9161 18.1741C34.8475 15.2426 39.5937 15.2426 42.5251 18.1741C45.4565 21.1055 45.4565 25.8516 42.5251 28.7831C39.5937 31.7145 34.8475 31.7145 31.9161 28.7831Z" fill="#118938"/>
<path d="M17.0146 18.1746L22.3191 23.4791L17.0146 28.7836C14.0832 31.715 9.33705 31.715 6.40561 28.7836C3.47417 25.8521 3.47417 21.106 6.40561 18.1746C9.3545 15.2606 14.1006 15.2606 17.0146 18.1746Z" fill="#ADCE6D"/>
</svg>
