<svg width="35" height="26" viewBox="0 0 35 26" fill="none" xmlns="http://www.w3.org/2000/svg">
<path d="M33.932 6.14743C33.932 3.12467 31.7489 0.773626 29.062 0.773626C25.3675 0.605694 21.673 0.521729 17.8106 0.521729H17.2228H16.635C12.7726 0.521729 9.07812 0.605694 5.38362 0.773626C2.69672 0.773626 0.513619 3.20863 0.513619 6.14743C0.345687 8.49847 0.261719 10.8495 0.261719 13.2006C0.261719 15.5516 0.345687 17.9026 0.513619 20.2537C0.513619 23.2764 2.69672 25.6275 5.38362 25.6275C9.24605 25.7954 13.1924 25.8794 17.2228 25.8794C21.2532 25.8794 25.1996 25.7954 29.062 25.6275C31.7489 25.6275 33.932 23.1925 33.932 20.2537C34.0999 17.9026 34.1839 15.5516 34.1839 13.1166C34.1839 10.8495 34.0999 8.49847 33.932 6.14743ZM13.9481 19.7499V6.73519L23.6042 13.2845L13.9481 19.7499Z" fill="white"/>
</svg>
