<svg width="39" height="40" viewBox="0 0 39 40" fill="none" xmlns="http://www.w3.org/2000/svg">
<path fill-rule="evenodd" clip-rule="evenodd" d="M1.41407 4.7644L6.95167 1.14922L34.2934 0.998535L39.0004 5.44219L38.7927 27.5303L33.6012 31.4467L30.5813 31.4576L32.071 39.9992L21.4615 31.477L5.84412 31.522L0.998779 27.4554L1.41407 4.7644Z" fill="white"/>
<path d="M14.0607 20.4393C13.4749 19.8536 12.5251 19.8536 11.9393 20.4393C11.3536 21.0251 11.3536 21.9749 11.9393 22.5607L14.0607 20.4393ZM28.9 22.7C29.5627 22.2029 29.6971 21.2627 29.2 20.6C28.7029 19.9373 27.7627 19.8029 27.1 20.3L28.9 22.7ZM11.9393 22.5607C14.9258 25.5472 22.2572 27.6821 28.9 22.7L27.1 20.3C21.7428 24.3179 16.0742 22.4528 14.0607 20.4393L11.9393 22.5607Z" fill="#003087"/>
<circle cx="13" cy="12" r="3" fill="#003087"/>
<circle cx="28" cy="12" r="3" fill="#003087"/>
</svg>
