<svg width="20" height="20" viewBox="0 0 20 20" fill="none" xmlns="http://www.w3.org/2000/svg">
<path fill-rule="evenodd" clip-rule="evenodd" d="M19.4413 0.558676C20.1862 1.30358 20.1862 2.5113 19.4413 3.2562L3.2562 19.4413C2.5113 20.1862 1.30358 20.1862 0.558676 19.4413C-0.186224 18.6964 -0.186224 17.4887 0.558676 16.7438L16.7438 0.558676C17.4887 -0.186224 18.6964 -0.186224 19.4413 0.558676Z" fill="#003087"/>
<path fill-rule="evenodd" clip-rule="evenodd" d="M0.558675 0.558675C1.30357 -0.186225 2.5113 -0.186225 3.2562 0.558675L19.4413 16.7438C20.1862 17.4887 20.1862 18.6964 19.4413 19.4413C18.6964 20.1862 17.4887 20.1862 16.7438 19.4413L0.558675 3.2562C-0.186225 2.5113 -0.186225 1.30357 0.558675 0.558675Z" fill="#003087"/>
</svg>
