<svg width="41" height="41" viewBox="0 0 41 41" fill="none" xmlns="http://www.w3.org/2000/svg">
<path d="M11.218 2.31522L39.0007 0L36.6854 39.3588H11.218V2.31522Z" fill="white"/>
<path d="M29.0421 21.4932L23.1728 15.7404C22.5662 15.1471 21.59 15.1471 20.9854 15.7443C20.3828 16.3415 20.3848 17.3046 20.9894 17.8979L24.2032 21.0482H3.81742C2.96374 21.0482 2.27075 21.7305 2.27075 22.5729C2.27075 23.4134 2.96374 24.0937 3.81742 24.0937H24.2032L20.9894 27.246C20.3848 27.8392 20.3828 28.8023 20.9854 29.3995C21.2887 29.6982 21.6844 29.8485 22.0821 29.8485C22.4758 29.8485 22.8715 29.6982 23.1728 29.4035L29.0421 23.6507C29.3333 23.364 29.4981 22.9763 29.4981 22.5729C29.4981 22.1675 29.3333 21.7799 29.0421 21.4932Z" fill="#003087"/>
</svg>
