<svg width="34" height="34" viewBox="0 0 34 34" fill="none" xmlns="http://www.w3.org/2000/svg">
<g opacity="0.5">
<path d="M27.7103 14.4601L5.53569 8.83003C5.21739 8.74994 4.8951 8.94161 4.81502 9.25991C4.77781 9.40251 4.79507 9.5502 4.86278 9.67673L15.3889 30.0012C15.5386 30.295 15.8988 30.4036 16.1878 30.2573C16.3274 30.1876 16.4342 30.0611 16.4811 29.9117L18.7579 22.6611L25.1337 27.708C25.3928 27.9099 25.762 27.8668 25.9674 27.6125L28.0764 24.9431C28.2783 24.684 28.2351 24.3148 27.9808 24.1095L21.7432 19.1756L27.8688 15.5471C28.1489 15.378 28.2409 15.015 28.0767 14.7314C27.9938 14.5938 27.866 14.4953 27.7103 14.4601ZM20.3884 18.5859C20.1083 18.755 20.0163 19.1181 20.1805 19.4016C20.2168 19.4632 20.2628 19.5179 20.3233 19.5623L26.7747 24.6648L25.4004 26.4001L18.8143 21.1894C18.5552 20.9875 18.186 21.0307 17.9806 21.2849C17.9328 21.3406 17.9001 21.4073 17.8805 21.4721L15.7745 28.1731L6.52293 10.2975L26.0265 15.2442L20.3884 18.5859Z" fill="white"/>
<path d="M12.1978 7.44535C11.1648 5.15932 8.88304 3.68066 6.38556 3.68066C2.86499 3.68066 0 6.54565 0 10.0662C0 12.5637 1.47859 14.8455 3.76462 15.8799C3.85967 15.9225 3.95904 15.9424 4.05696 15.9424C4.32655 15.9424 4.58483 15.7863 4.70403 15.5252C4.8644 15.1676 4.70542 14.7476 4.3493 14.5858C2.56985 13.7812 1.41906 12.0074 1.41906 10.0662C1.41906 7.32755 3.64688 5.09965 6.38562 5.09965C8.32683 5.09965 10.1006 6.25045 10.9052 8.02989C11.0656 8.38748 11.487 8.54785 11.8431 8.38462C12.2007 8.22292 12.3596 7.80294 12.1978 7.44535Z" fill="white"/>
</g>
</svg>
