<svg width="39" height="39" viewBox="0 0 39 39" fill="none" xmlns="http://www.w3.org/2000/svg">
<path d="M0 11.769C0 8.72527 1.23324 5.68157 3.49419 3.44952C5.54959 1.21748 8.6327 0 11.7158 0H38.6416V5.88448H11.7158C10.277 5.88448 8.83824 6.49322 7.605 7.50779C6.57729 8.72527 5.96067 10.1457 5.96067 11.769V21.7117C5.75513 22.9292 5.34405 24.1467 4.52189 25.1612C3.69973 26.1758 2.46649 26.7845 1.23324 26.9875H0V11.769Z" fill="#E30613"/>
<path d="M0 38.5535V32.669H26.9258C28.3646 32.669 29.8034 32.0602 31.0366 31.0457C32.0643 30.0311 32.6809 28.6107 32.6809 26.9874V17.4505C32.6809 16.0301 33.092 14.8126 34.1197 13.7981C35.1474 12.7835 36.1751 11.9718 37.6139 11.7689L38.6416 11.566V26.7845C38.6416 29.8282 37.4084 32.8719 35.1474 35.1039C32.8865 37.336 30.0089 38.5535 26.9258 38.5535H0Z" fill="#E30613"/>
<path d="M22.8149 26.9873V19.2766L19.3207 23.5378L15.8266 19.2766V26.9873H11.0991V11.9717H15.4155L19.1152 16.8416L22.8149 11.9717H27.1313V26.9873H22.8149Z" fill="#E30613"/>
</svg>
