<svg width="269" height="57" viewBox="0 0 269 57" fill="none" xmlns="http://www.w3.org/2000/svg">
<path d="M269 0L1.45013 5.86087L0 57H269V0Z" fill="#E92327"/>
<path d="M24.6609 21.176C24.5889 26.576 24.7809 32.144 24.9489 38H27.1089V23.336H31.8849C31.9569 22.856 31.9809 21.824 31.9809 21.176H24.6609ZM39.9787 21.584C39.6667 21.416 39.3307 21.296 38.9467 21.224L37.8187 21.176C37.1227 21.152 36.1867 21.152 35.1547 21.176C34.1227 21.2 33.6427 21.8 33.3787 22.376C33.2347 22.712 33.1627 23.096 33.1387 23.528L33.1147 35.192C33.0427 36.656 33.4747 37.736 35.0107 38C35.5627 38 36.0907 38 36.6187 38.024C37.5067 38.048 38.5147 38.072 39.1627 38.048C40.1947 38.048 40.9147 37.016 40.9147 36.008L40.9627 30.608C40.9627 27.8 41.0107 24.632 41.0107 23.576C41.0107 22.496 40.4827 21.896 39.9787 21.584ZM38.7787 34.784C38.7307 35.048 38.6827 35.288 38.6107 35.504C38.4187 35.864 37.8667 36.176 37.0987 36.176C35.5147 36.176 35.3947 35.96 35.3947 34.808C35.3947 34.28 35.4427 24.296 35.4427 23.936C35.4427 22.784 35.5387 22.568 37.1227 22.568C37.9147 22.568 38.3227 22.616 38.5147 22.976C38.5867 23.192 38.6107 23.72 38.6347 23.984C38.6347 23.984 38.7307 25.856 38.7307 28.784C38.7307 31.184 38.7787 34.784 38.7787 34.784ZM45.1717 23.576V38.024H47.5237C47.5237 33.248 47.2357 28.304 47.2357 23.288H50.7637V22.976C50.7637 22.688 50.7157 22.256 50.6917 21.896L50.6437 21.248L42.2677 21.104C42.1957 21.56 42.2197 23.144 42.2197 23.576H45.1717ZM58.8094 21.584C58.4974 21.416 58.1614 21.296 57.7774 21.224L56.6494 21.176C55.9534 21.152 55.0174 21.152 53.9854 21.176C52.9534 21.2 52.4734 21.8 52.2094 22.376C52.0654 22.712 51.9934 23.096 51.9694 23.528L51.9454 35.192C51.8734 36.656 52.3054 37.736 53.8414 38C54.3934 38 54.9214 38 55.4494 38.024C56.3374 38.048 57.3454 38.072 57.9934 38.048C59.0254 38.048 59.7454 37.016 59.7454 36.008L59.7934 30.608C59.7934 27.8 59.8414 24.632 59.8414 23.576C59.8414 22.496 59.3134 21.896 58.8094 21.584ZM57.6094 34.784C57.5614 35.048 57.5134 35.288 57.4414 35.504C57.2494 35.864 56.6974 36.176 55.9294 36.176C54.3454 36.176 54.2254 35.96 54.2254 34.808C54.2254 34.28 54.2734 24.296 54.2734 23.936C54.2734 22.784 54.3694 22.568 55.9534 22.568C56.7454 22.568 57.1534 22.616 57.3454 22.976C57.4174 23.192 57.4414 23.72 57.4654 23.984C57.4654 23.984 57.5614 25.856 57.5614 28.784C57.5614 31.184 57.6094 34.784 57.6094 34.784ZM68.2264 30.272C67.9144 30.104 67.5784 29.984 67.1704 29.912L64.1224 29.24C64.2904 29.264 64.4824 29.264 64.7224 29.264C65.1304 29.264 65.7304 29.264 66.5944 29.192C67.4344 29.12 67.9864 28.736 68.2984 28.376C68.4664 28.16 68.6104 27.92 68.7064 27.656L68.7784 26.36C68.8024 25.568 68.8024 24.488 68.7064 23.312C68.5864 22.16 67.9144 21.608 67.2664 21.344C66.8824 21.176 66.4504 21.104 65.9704 21.128C64.5304 21.056 62.9464 21.152 61.4344 21.368C61.2184 26.624 61.2184 31.976 61.6744 38.192L63.8104 38.096C64.9864 38.024 66.3064 38 67.1464 37.928C67.9384 37.904 68.3704 37.64 68.5864 37.376C68.7064 37.232 68.8024 37.064 68.8264 36.896C68.8744 36.248 68.9224 35.624 68.9944 35C69.0904 33.944 69.1624 32.696 69.2344 31.856C69.3064 31.016 68.7784 30.56 68.2264 30.272ZM64.1224 22.232C64.1464 22.232 64.1464 22.208 64.1704 22.208C64.7704 22.088 65.6104 22.376 65.6584 23.072C65.6824 23.288 65.7304 25.496 65.6584 26.048C65.6104 26.456 65.3464 27.152 64.9144 27.368C64.6984 27.464 64.0744 27.488 64.0744 27.488C64.0744 27.488 64.0984 22.232 64.1224 22.232ZM66.0664 33.608C66.0424 34.04 65.9944 34.472 65.9464 34.904C65.8984 35.384 65.8264 35.912 65.5864 36.32C65.3464 36.704 64.0984 36.68 64.0984 36.68C64.0984 36.68 63.8824 32 64.0744 31.088C64.0984 31.04 65.1064 31.064 65.3944 31.304C66.0184 31.856 66.0904 32.816 66.0664 33.608ZM77.0422 30.392C76.8262 29.792 76.3942 29.192 75.5062 29.216C74.5702 29.24 74.0182 29.264 73.6582 29.264H73.1542L72.8902 21.008L70.9462 21.056L70.6342 37.904L74.9062 37.952C75.3142 37.928 75.6982 37.832 76.0102 37.664C76.5622 37.4 77.0902 36.968 77.1622 36.032C77.1862 35.144 77.2342 34.04 77.2342 33.152V31.616C77.2342 31.16 77.1622 30.752 77.0422 30.392ZM75.2182 36.152C74.7862 36.512 72.9622 36.536 72.9622 36.416C72.9622 35.792 73.1062 31.064 73.1302 31.016C73.2262 30.92 74.0422 30.896 74.2822 30.944C74.5462 30.992 74.7862 31.064 75.0022 31.16C75.4342 31.376 75.4102 31.736 75.5062 32.12C75.5782 32.48 75.8422 35.624 75.2182 36.152ZM92.4729 21.2C91.8489 21.2 89.1129 21.584 87.2649 22.04C86.3289 22.256 85.8729 22.688 85.6089 23.048C85.4649 23.264 85.3929 23.504 85.3689 23.744L85.0809 35.192C85.2729 37.28 86.4489 38.216 88.6329 38.024L92.8569 37.64L92.7129 35.624C92.2329 35.696 91.7769 35.744 91.3209 35.792C90.5529 35.864 89.6169 35.936 89.0409 35.936C87.8649 35.936 87.6969 35.6 87.3849 35.096C87.0969 34.544 87.0729 27.584 87.1689 25.928C87.2409 25.088 87.5289 24.68 87.8169 24.464C87.9849 24.344 88.1769 24.272 88.3929 24.248L92.3529 23.768L92.4729 21.2ZM103.722 23.576V38.024H106.074C106.074 33.248 105.786 28.304 105.786 23.288H109.314V22.976C109.314 22.688 109.266 22.256 109.242 21.896L109.194 21.248L100.818 21.104C100.746 21.56 100.77 23.144 100.77 23.576H103.722ZM111.235 21.224C111.307 21.224 111.307 24.776 111.235 28.232C111.211 30.272 111.163 32.6 111.091 35.216C111.091 35.528 110.755 37.928 112.939 38C114.115 38.072 114.955 38.048 115.507 38.072C115.819 38.096 116.083 38.096 116.299 38.096C116.755 38.024 117.139 37.904 117.499 37.712C118.099 37.352 118.675 36.752 118.651 35.6C118.651 34.448 118.603 30.776 118.531 27.392L118.459 20.888L116.395 20.984L116.203 34.592C116.179 34.856 116.131 35.096 116.059 35.312C115.891 35.672 115.579 36.008 114.907 36.008C113.539 36.008 113.443 35.792 113.443 34.64C113.443 34.088 113.419 30.632 113.419 27.392C113.395 25.472 113.395 23.336 113.395 20.984C112.939 21.008 112.555 21.056 112.243 21.08C111.691 21.152 111.139 21.2 111.235 21.224ZM128.247 21.2C127.623 21.2 124.887 21.584 123.039 22.04C122.103 22.256 121.647 22.688 121.383 23.048C121.239 23.264 121.167 23.504 121.143 23.744L120.855 35.192C121.047 37.28 122.223 38.216 124.407 38.024L128.631 37.64L128.487 35.624C128.007 35.696 127.551 35.744 127.095 35.792C126.327 35.864 125.391 35.936 124.815 35.936C123.639 35.936 123.471 35.6 123.159 35.096C122.871 34.544 122.847 27.584 122.943 25.928C123.015 25.088 123.303 24.68 123.591 24.464C123.759 24.344 123.951 24.272 124.167 24.248L128.127 23.768L128.247 21.2ZM130.885 20.336V34.184H132.829L133.285 20.072L130.885 20.336ZM130.717 35.84L130.669 36.944L130.597 38.024L132.829 38.216V35.84H130.717ZM148.814 23.24C148.526 20.336 143.822 20.936 141.566 21.224L142.142 38H144.158V31.64C145.598 31.712 148.622 30.704 148.814 28.736C149.006 26.912 149.006 25.088 148.814 23.24ZM146.726 27.608C146.63 27.992 146.654 28.352 146.222 28.568C146.006 28.664 145.766 28.736 145.502 28.784C145.262 28.832 144.446 28.808 144.35 28.712C144.326 28.664 144.182 23.936 144.182 23.312C144.182 23.192 146.006 23.216 146.438 23.576C147.062 24.104 146.798 27.248 146.726 27.608ZM150.451 38H157.651V36.2H152.779C152.755 35.264 152.539 33.824 152.539 32.888V32.6L157.051 32V30.2H152.539C152.467 29.528 152.131 24.608 152.251 23H157.651V21.2C155.251 21.2 152.515 21.08 150.115 21.2L150.451 38ZM158.875 21.272L158.683 38.144L165.787 37.952L165.931 41.648L168.043 41.696L168.139 35.792L167.107 35.72C166.603 35.696 166.099 35.672 166.099 35.696C166.099 35.72 166.195 32.096 166.243 28.472L166.387 21.224L164.299 21.176L164.131 35.552L161.179 35.792L160.627 21.272H158.875ZM169.751 38H176.951V36.2H172.079C172.055 35.264 171.839 33.824 171.839 32.888V32.6L176.351 32V30.2H171.839C171.767 29.528 171.431 24.608 171.551 23H176.951V21.2C174.551 21.2 171.815 21.08 169.415 21.2L169.751 38ZM180.19 23.456L184.15 23.48C183.982 28.856 183.91 33.8 183.886 38.408L185.878 38.36L185.926 21.68L178.246 21.392C178.102 21.392 178.75 37.952 178.654 38.048C178.582 38.12 179.11 38.096 179.614 38.024L180.646 37.904L180.19 23.456ZM190.091 23.576V38.024H192.443C192.443 33.248 192.155 28.304 192.155 23.288H195.683V22.976C195.683 22.688 195.635 22.256 195.611 21.896L195.563 21.248L187.187 21.104C187.115 21.56 187.139 23.144 187.139 23.576H190.091ZM203.777 31.064C203.705 30.68 203.561 30.344 203.369 30.056C203.009 29.552 202.433 29.048 201.377 29.048C200.321 29.048 199.793 29.072 199.529 29.096C199.361 29.12 199.289 29.12 199.265 29.144L199.121 20.96L196.937 21.272L196.841 37.952L201.281 37.904C201.737 37.856 202.169 37.76 202.553 37.592C203.201 37.328 203.801 36.872 203.873 36.032C203.897 35.192 203.873 33.968 203.849 32.936L203.777 31.064ZM201.473 36.08C201.041 36.44 199.217 36.464 199.217 36.344C199.217 35.72 199.361 30.992 199.385 30.944C199.481 30.848 200.297 30.824 200.537 30.872C200.801 30.92 201.041 30.992 201.257 31.088C201.689 31.304 201.665 31.664 201.761 32.048C201.833 32.408 202.097 35.552 201.473 36.08ZM208.097 21.32L205.433 21.272L205.841 38.048L208.145 38L208.097 21.32Z" fill="white"/>
<path d="M247.869 35.9488L248.725 26.8391C248.806 25.1177 247.47 23.649 245.733 23.5679C245.182 23.5422 244.659 23.6604 244.198 23.8939C244.067 22.3563 242.808 21.1126 241.214 21.0382C240.664 21.0137 240.14 21.1318 239.678 21.3618C239.545 19.8264 238.287 18.5816 236.694 18.5084C236.155 18.4833 235.642 18.5961 235.188 18.8172L235.379 14.7173C235.459 12.9959 234.124 11.5273 232.386 11.4462C230.664 11.3646 229.196 12.7012 229.116 14.4249L228.381 30.1764L223.16 25.9862C221.768 24.8371 219.712 24.8861 218.376 26.1026C217.375 27.0146 217.302 28.5717 218.214 29.5731L228.613 40.9903C230.233 42.769 232.449 43.8104 234.853 43.9226L238.492 44.0925C240.892 44.2058 243.193 43.3752 244.969 41.7574C246.628 40.2465 247.658 38.1834 247.869 35.9488ZM238.568 42.4567L234.929 42.2868C232.962 42.195 231.149 41.3428 229.824 39.8873L219.425 28.4702C219.121 28.136 219.145 27.6177 219.479 27.3133C220.215 26.6427 221.349 26.6157 222.126 27.2572L228.611 32.4606C228.852 32.6538 229.179 32.6946 229.461 32.5687C229.74 32.4426 229.927 32.1684 229.941 31.8607L230.752 14.5012C230.79 13.6799 231.49 13.0424 232.324 13.0802C232.735 13.1006 233.099 13.2845 233.356 13.5667C233.613 13.8488 233.763 14.2291 233.743 14.641L233.203 26.2164C233.182 26.6675 233.531 27.0514 233.983 27.0725C234.208 27.0818 234.417 27 234.572 26.8589C234.727 26.7177 234.828 26.5172 234.839 26.2905L235.06 21.5636C235.098 20.7423 235.797 20.1059 236.632 20.1449C237.451 20.1832 238.089 20.8842 238.051 21.7033L237.83 26.4324C237.809 26.8836 238.159 27.2675 238.61 27.2885C238.836 27.2979 239.045 27.2161 239.2 27.0749C239.355 26.9337 239.456 26.7333 239.466 26.5065L239.579 24.0933C239.617 23.272 240.316 22.6356 241.151 22.6746C241.97 22.7129 242.609 23.414 242.571 24.233L242.457 26.6577C242.458 26.6612 242.457 26.66 242.457 26.66L242.457 26.6623C242.457 26.6645 242.457 26.6645 242.457 26.6645C242.457 26.6668 242.457 26.6668 242.457 26.6668L242.458 26.668C242.459 26.6692 242.458 26.6703 242.458 26.6703C242.449 27.1127 242.796 27.4837 243.239 27.5032C243.69 27.5243 244.074 27.1747 244.095 26.7235L244.099 26.6241C244.118 26.2261 244.29 25.8585 244.585 25.5905C244.879 25.3225 245.259 25.1849 245.671 25.2042C246.492 25.2449 247.126 25.9434 247.093 26.7244L246.239 35.796C246.066 37.6221 245.224 39.3103 243.867 40.5465C242.414 41.8699 240.533 42.5484 238.568 42.4567Z" fill="white"/>
</svg>
