<svg width="52" height="46" viewBox="0 0 52 46" fill="none" xmlns="http://www.w3.org/2000/svg">
<path d="M10.7622 26.0963C8.894 26.0963 7.1395 26.0963 5.385 26.0963C3.63051 26.0963 1.87601 26.0963 0.0240431 26.0963C-0.0571836 24.5608 0.0727791 23.0576 0.332704 21.5868C2.20092 10.806 10.2099 2.64361 21.0293 0.493919C35.0652 -2.3023 49.0037 7.0723 51.5542 21.0695C52.5777 26.7105 51.9441 32.1251 48.5489 36.9094C43.3666 44.1666 36.2349 47.0921 27.4137 45.6374C19.486 44.3282 13.0366 37.9923 11.2333 30.0562C10.9409 28.7632 10.8109 27.4863 10.7622 26.0963ZM31.3938 35.6648C36.901 35.6648 41.206 31.2846 41.1572 25.7084C41.1085 20.4715 36.706 16.2044 31.3451 16.2206C25.9516 16.2206 21.3867 20.6655 21.4029 25.9023C21.4029 31.3331 25.8541 35.681 31.3938 35.6648Z" fill="#FE2D6C"/>
</svg>
