<svg width="43" height="46" viewBox="0 0 43 46" fill="none" xmlns="http://www.w3.org/2000/svg">
<path fill-rule="evenodd" clip-rule="evenodd" d="M42.3765 4.96474C42.3765 2.22081 40.1521 0 37.4038 0H5.3535C2.6052 0 0.380859 2.22081 0.380859 4.96474V24.9126C0.380859 36.4904 9.78242 45.877 21.3787 45.877C32.9749 45.877 42.3765 36.4904 42.3765 24.9126C42.3765 16.9769 42.3864 12.9103 42.3765 4.96474Z" fill="#FEC800"/>
<path fill-rule="evenodd" clip-rule="evenodd" d="M19.9952 30.4597C19.9952 29.374 19.1054 28.5054 17.9982 28.5054C16.9107 28.5054 16.0408 29.374 16.0408 30.4597C16.0408 31.5454 16.9107 32.4338 17.9982 32.4338C19.1054 32.4338 19.9952 31.5454 19.9952 30.4597ZM27.0142 30.4597C27.0142 29.374 26.1245 28.5054 25.037 28.5054C23.9496 28.5054 23.0598 29.374 23.0598 30.4597C23.0598 31.5454 23.9496 32.4338 25.037 32.4338C26.1245 32.4338 27.0142 31.5454 27.0142 30.4597Z" fill="black"/>
</svg>
