<svg width="42" height="25" viewBox="0 0 42 25" fill="none" xmlns="http://www.w3.org/2000/svg">
<path d="M13.7703 1.9567C14.1062 1.201 14.6939 0.781175 15.3657 0.69721C16.2893 0.529278 17.2129 0.445312 18.0526 0.445312C19.48 0.445312 20.9074 0.445313 22.2509 0.613244C23.8462 0.781175 24.266 1.28497 24.266 2.88032C24.266 4.72756 24.1821 6.49084 24.1821 8.33809C24.1821 8.92585 24.1821 9.59757 24.1821 10.1853C24.1821 10.5212 24.35 10.941 24.5179 11.3609C24.8538 12.1165 25.4415 12.2845 25.9453 11.6967C26.869 10.6891 27.7926 9.68154 28.4643 8.58998C29.5559 6.74274 30.4795 4.72756 31.4871 2.79635C32.1588 1.62083 32.2428 1.4529 33.4183 1.4529C35.5174 1.4529 37.6166 1.4529 39.7997 1.36894C41.563 1.36894 42.1507 2.04066 41.3111 3.63601C40.3875 5.39929 39.2959 6.99464 38.1204 8.67395C37.2807 9.93344 36.2731 11.109 35.4335 12.3684C34.5938 13.6279 34.5938 14.2157 35.6014 15.2233C36.693 16.3148 37.8685 17.4064 38.96 18.5819C39.7997 19.5055 40.5554 20.4291 41.2271 21.5207C42.0668 22.8642 41.563 23.8717 39.9676 23.9557C37.8685 24.1236 35.6854 24.0397 33.5862 24.1236C33.5023 24.1236 33.3343 24.1236 33.2504 24.0397C32.1588 23.7878 31.2352 23.2 30.4795 22.4443C29.4719 21.3528 28.4643 20.2612 27.3728 19.2536C26.2812 18.246 25.2736 18.4979 24.7698 19.9254C24.5179 20.681 24.434 21.5207 24.35 22.3604C24.266 23.284 23.9302 23.6198 22.9226 23.6198C21.6631 23.6198 20.4036 23.6198 19.1441 23.5359C15.8694 23.284 13.0146 21.9405 10.6636 19.7574C8.90029 18.0781 7.38891 16.0629 6.12942 14.0478C3.86234 10.5212 1.93113 6.91067 0.251814 3.13222C-0.251981 1.9567 -8.37697e-05 1.4529 1.2594 1.4529C3.27458 1.36894 5.2058 1.36894 7.22097 1.4529C7.97667 1.4529 8.56443 1.9567 8.90029 2.71239C9.82391 5.14739 11.0834 7.41447 12.5108 9.51361C13.0146 10.2693 13.6024 11.025 14.2741 11.6128C15.1138 12.3684 15.7855 12.2005 16.1213 11.109C16.2893 10.4372 16.4572 9.68154 16.4572 9.00981C16.5412 7.75033 16.4572 6.49084 16.4572 5.23136C16.2053 3.04825 15.7015 2.54446 13.7703 1.9567Z" fill="white"/>
</svg>
