<svg width="47" height="47" viewBox="0 0 47 47" fill="none" xmlns="http://www.w3.org/2000/svg">
<path d="M47 23.2178C47 25.3676 44.8636 26.335 43.3682 26.7381C34.9028 29.0492 26.4375 31.3871 17.9722 33.6981C16.904 33.9937 16.904 33.9668 16.5034 32.8919C13.4057 24.2927 10.308 15.6935 7.18352 7.09434C6.54261 5.32075 6.86307 5.58948 5.07386 5.58948C3.39148 5.58948 1.70909 5.58948 0 5.58948C0 3.7084 0 0 0 0C0 0 6.30227 0 9.45341 0C10.2813 0 10.7085 0.21498 10.9756 1.0749C11.7233 3.35906 12.5778 5.58948 13.379 7.84677C13.833 9.13665 13.833 9.13665 15.2483 9.13665C25.2625 9.13665 46.9733 9.13665 46.9733 9.13665C46.9733 9.13665 47 18.4883 47 23.2178Z" fill="#0175FE"/>
<path d="M13.2722 47C15.5434 47 17.3847 45.1472 17.3847 42.8616C17.3847 40.5761 15.5434 38.7233 13.2722 38.7233C11.0009 38.7233 9.15967 40.5761 9.15967 42.8616C9.15967 45.1472 11.0009 47 13.2722 47Z" fill="#060606"/>
<path d="M36.0778 47C38.3491 47 40.1903 45.1472 40.1903 42.8616C40.1903 40.5761 38.3491 38.7233 36.0778 38.7233C33.8066 38.7233 31.9653 40.5761 31.9653 42.8616C31.9653 45.1472 33.8066 47 36.0778 47Z" fill="#060606"/>
</svg>
