<svg width="371" height="57" viewBox="0 0 371 57" fill="none" xmlns="http://www.w3.org/2000/svg">
<path d="M371 0L2 5.86087L0 57H371V0Z" fill="#E92327"/>
<path d="M29.8566 31.304C29.8326 30.344 29.4726 29.792 29.1126 29.432C28.8966 29.24 28.6806 29.096 28.4166 29C27.5526 28.832 26.5686 28.76 25.3446 28.832C25.3206 27.104 25.2246 25.472 25.3926 23.336C27.2886 23.504 28.5126 23.408 29.8566 23.384L29.8086 21.08C27.7926 21.008 25.6806 20.96 23.1606 21.128L22.8966 38H28.1046C28.8966 38 29.3526 37.568 29.6166 37.112C29.7606 36.848 29.8566 36.536 29.9046 36.2V34.472C29.9046 33.488 29.8806 32.288 29.8566 31.304ZM27.5526 35.984C27.1206 36.344 25.2966 36.392 25.2966 36.248C25.2966 35.648 25.4406 30.896 25.4646 30.848C25.5606 30.752 26.3766 30.728 26.6166 30.776C26.8806 30.824 27.1206 30.896 27.3366 31.016C27.7686 31.232 27.7446 31.568 27.8406 31.952C27.9126 32.312 28.1766 35.456 27.5526 35.984ZM38.1927 21.584C37.8807 21.416 37.5447 21.296 37.1607 21.224L36.0327 21.176C35.3367 21.152 34.4007 21.152 33.3687 21.176C32.3367 21.2 31.8567 21.8 31.5927 22.376C31.4487 22.712 31.3767 23.096 31.3527 23.528L31.3287 35.192C31.2567 36.656 31.6887 37.736 33.2247 38C33.7767 38 34.3047 38 34.8327 38.024C35.7207 38.048 36.7287 38.072 37.3767 38.048C38.4087 38.048 39.1287 37.016 39.1287 36.008L39.1767 30.608C39.1767 27.8 39.2247 24.632 39.2247 23.576C39.2247 22.496 38.6967 21.896 38.1927 21.584ZM36.9927 34.784C36.9447 35.048 36.8967 35.288 36.8247 35.504C36.6327 35.864 36.0807 36.176 35.3127 36.176C33.7287 36.176 33.6087 35.96 33.6087 34.808C33.6087 34.28 33.6567 24.296 33.6567 23.936C33.6567 22.784 33.7527 22.568 35.3367 22.568C36.1287 22.568 36.5367 22.616 36.7287 22.976C36.8007 23.192 36.8247 23.72 36.8487 23.984C36.8487 23.984 36.9447 25.856 36.9447 28.784C36.9447 31.184 36.9927 34.784 36.9927 34.784ZM42.2577 38.048C44.0817 38.048 46.1937 35.696 46.3137 33.416L46.3617 23.336H48.8097L48.8577 38.192H51.3537L50.8977 21.128L44.1057 21.176C44.1057 23.144 44.1057 24.968 44.1297 26.624C44.1297 29.456 44.1537 32.504 44.1537 33.344C44.1537 35.072 42.7617 35.96 41.8017 35.96L40.5297 36.008L40.3857 38.096L42.2577 38.048ZM59.1443 30.392C58.9283 29.792 58.4963 29.192 57.6083 29.216C56.6723 29.24 56.1203 29.264 55.7603 29.264H55.2563L54.9923 21.008L53.0483 21.056L52.7363 37.904L57.0083 37.952C57.4163 37.928 57.8003 37.832 58.1123 37.664C58.6643 37.4 59.1923 36.968 59.2643 36.032C59.2883 35.144 59.3363 34.04 59.3363 33.152V31.616C59.3363 31.16 59.2643 30.752 59.1443 30.392ZM57.3203 36.152C56.8883 36.512 55.0643 36.536 55.0643 36.416C55.0643 35.792 55.2083 31.064 55.2323 31.016C55.3283 30.92 56.1443 30.896 56.3843 30.944C56.6483 30.992 56.8883 31.064 57.1043 31.16C57.5363 31.376 57.5123 31.736 57.6083 32.12C57.6803 32.48 57.9443 35.624 57.3203 36.152ZM60.679 21.32L60.535 37.952L72.847 37.904L73.351 21.176L70.855 21.128L70.207 35.648L67.951 35.888V21.128H65.551L65.599 35.744L63.199 35.888L63.031 21.224L60.679 21.32ZM75.0904 38H82.2904V36.2H77.4184C77.3944 35.264 77.1784 33.824 77.1784 32.888V32.6L81.6904 32V30.2H77.1784C77.1064 29.528 76.7704 24.608 76.8904 23H82.2904V21.2C79.8904 21.2 77.1544 21.08 74.7544 21.2L75.0904 38ZM97.1941 30.272C96.8821 30.104 96.5461 29.984 96.1381 29.912L93.0901 29.24C93.2581 29.264 93.4501 29.264 93.6901 29.264C94.0981 29.264 94.6981 29.264 95.5621 29.192C96.4021 29.12 96.9541 28.736 97.2661 28.376C97.4341 28.16 97.5781 27.92 97.6741 27.656L97.7461 26.36C97.7701 25.568 97.7701 24.488 97.6741 23.312C97.5541 22.16 96.8821 21.608 96.2341 21.344C95.8501 21.176 95.4181 21.104 94.9381 21.128C93.4981 21.056 91.9141 21.152 90.4021 21.368C90.1861 26.624 90.1861 31.976 90.6421 38.192L92.7781 38.096C93.9541 38.024 95.2741 38 96.1141 37.928C96.9061 37.904 97.3381 37.64 97.5541 37.376C97.6741 37.232 97.7701 37.064 97.7941 36.896C97.8421 36.248 97.8901 35.624 97.9621 35C98.0581 33.944 98.1301 32.696 98.2021 31.856C98.2741 31.016 97.7461 30.56 97.1941 30.272ZM93.0901 22.232C93.1141 22.232 93.1141 22.208 93.1381 22.208C93.7381 22.088 94.5781 22.376 94.6261 23.072C94.6501 23.288 94.6981 25.496 94.6261 26.048C94.5781 26.456 94.3141 27.152 93.8821 27.368C93.6661 27.464 93.0421 27.488 93.0421 27.488C93.0421 27.488 93.0661 22.232 93.0901 22.232ZM95.0341 33.608C95.0101 34.04 94.9621 34.472 94.9141 34.904C94.8661 35.384 94.7941 35.912 94.5541 36.32C94.3141 36.704 93.0661 36.68 93.0661 36.68C93.0661 36.68 92.8501 32 93.0421 31.088C93.0661 31.04 94.0741 31.064 94.3621 31.304C94.9861 31.856 95.0581 32.816 95.0341 33.608ZM107.546 38L107.762 21.224L105.506 21.32L102.194 32.288L101.954 20.888L99.6019 21.176L99.9379 38.192L102.386 38.096L105.458 28.088L105.098 38.048L107.546 38ZM119.31 35.72C119.238 31.4 119.262 27.056 119.142 21.176L113.022 21.272L113.094 24.416C113.118 26.144 113.118 28.064 113.022 29.192C112.926 30.32 112.398 31.952 111.894 33.32C111.606 34.112 111.294 34.952 110.934 35.792L109.014 35.84C108.942 36.584 108.894 37.304 108.966 38.048L108.99 38.192L109.038 39.488C109.062 40.16 109.086 40.832 109.086 40.904H111.342L111.39 38.144L120.006 38.096L120.054 40.76L122.31 40.712L122.43 35.792L119.31 35.72ZM116.694 35.672C116.694 35.672 113.67 35.888 113.622 35.744C113.55 35.312 114.582 34.256 115.038 29.24C115.11 28.472 115.014 23.624 115.038 23.504C115.182 23.504 116.166 23.552 116.43 23.528C116.478 23.888 116.694 35.672 116.694 35.672ZM123.925 38H131.125V36.2H126.253C126.229 35.264 126.013 33.824 126.013 32.888V32.6L130.525 32V30.2H126.013C125.941 29.528 125.605 24.608 125.725 23H131.125V21.2C128.725 21.2 125.989 21.08 123.589 21.2L123.925 38ZM139.236 21.584C138.924 21.416 138.588 21.296 138.204 21.224L137.076 21.176C136.38 21.152 135.444 21.152 134.412 21.176C133.38 21.2 132.9 21.8 132.636 22.376C132.492 22.712 132.42 23.096 132.396 23.528L132.372 35.192C132.3 36.656 132.732 37.736 134.268 38C134.82 38 135.348 38 135.876 38.024C136.764 38.048 137.772 38.072 138.42 38.048C139.452 38.048 140.172 37.016 140.172 36.008L140.22 30.608C140.22 27.8 140.268 24.632 140.268 23.576C140.268 22.496 139.74 21.896 139.236 21.584ZM138.036 34.784C137.988 35.048 137.94 35.288 137.868 35.504C137.676 35.864 137.124 36.176 136.356 36.176C134.772 36.176 134.652 35.96 134.652 34.808C134.652 34.28 134.7 24.296 134.7 23.936C134.7 22.784 134.796 22.568 136.38 22.568C137.172 22.568 137.58 22.616 137.772 22.976C137.844 23.192 137.868 23.72 137.892 23.984C137.892 23.984 137.988 25.856 137.988 28.784C137.988 31.184 138.036 34.784 138.036 34.784ZM148.893 38.048C148.821 38.12 149.349 38.096 149.853 38.024L150.885 37.904L151.029 31.52L153.285 31.664L153.789 37.808L155.781 37.76L155.829 21.08H154.101L153.381 29.696L150.837 29.552L150.381 21.44C150.069 21.44 149.757 21.44 149.493 21.416C149.037 21.416 148.557 21.392 148.485 21.392C148.341 21.392 148.989 37.952 148.893 38.048ZM163.074 21.296C162.042 21.224 159.834 21.224 158.586 21.224L157.122 38H159.186C159.546 35.624 159.594 33.344 160.05 31.52L162.114 31.832C162.498 33.104 162.81 36.488 163.002 38H165.066L163.074 21.296ZM161.922 29.72L160.314 29.528L160.554 24.536L161.25 24.56L161.922 29.72ZM173.53 38.048C173.458 38.12 173.986 38.096 174.49 38.024L175.522 37.904L175.666 31.52L177.922 31.664L178.426 37.808L180.418 37.76L180.466 21.08H178.738L178.018 29.696L175.474 29.552L175.018 21.44C174.706 21.44 174.394 21.44 174.13 21.416C173.674 21.416 173.194 21.392 173.122 21.392C172.978 21.392 173.626 37.952 173.53 38.048ZM187.711 21.296C186.679 21.224 184.471 21.224 183.223 21.224L181.759 38H183.823C184.183 35.624 184.231 33.344 184.687 31.52L186.751 31.832C187.135 33.104 187.447 36.488 187.639 38H189.703L187.711 21.296ZM186.559 29.72L184.951 29.528L185.191 24.536L185.887 24.56L186.559 29.72ZM191.111 21.32L190.967 37.952L203.279 37.904L203.783 21.176L201.287 21.128L200.639 35.648L198.383 35.888V21.128H195.983L196.031 35.744L193.631 35.888L193.463 21.224L191.111 21.32ZM205.522 38H212.722V36.2H207.85C207.826 35.264 207.61 33.824 207.61 32.888V32.6L212.122 32V30.2H207.61C207.538 29.528 207.202 24.608 207.322 23H212.722V21.2C210.322 21.2 207.586 21.08 205.186 21.2L205.522 38ZM216.058 38L216.346 26.336L219.298 32.336H220.858L223.402 27.032L223.57 38L225.754 38.144L225.106 21.128H223.162L220.21 29.144L216.106 21.128L213.946 21.44L214.09 38H216.058ZM233.83 21.272L234.022 38.144H236.134L236.182 30.848L239.494 38.096L241.39 36.608L237.43 29.6L241.75 22.688L240.382 21.032L236.038 28.088L235.942 20.888L233.83 21.272ZM248.82 21.296C247.788 21.224 245.58 21.224 244.332 21.224L242.868 38H244.932C245.292 35.624 245.34 33.344 245.796 31.52L247.86 31.832C248.244 33.104 248.556 36.488 248.748 38H250.812L248.82 21.296ZM247.668 29.72L246.06 29.528L246.3 24.536L246.996 24.56L247.668 29.72ZM252.556 38.048C252.484 38.12 253.012 38.096 253.516 38.024L254.548 37.904L254.692 31.52L256.948 31.664L257.452 37.808L259.444 37.76L259.492 21.08H257.764L257.044 29.696L254.5 29.552L254.044 21.44C253.732 21.44 253.42 21.44 253.156 21.416C252.7 21.416 252.22 21.392 252.148 21.392C252.004 21.392 252.652 37.952 252.556 38.048ZM266.736 21.296C265.704 21.224 263.496 21.224 262.248 21.224L260.784 38H262.848C263.208 35.624 263.256 33.344 263.712 31.52L265.776 31.832C266.16 33.104 266.472 36.488 266.664 38H268.728L266.736 21.296ZM265.584 29.72L263.976 29.528L264.216 24.536L264.912 24.56L265.584 29.72ZM271.6 38.048C273.424 38.048 275.536 35.696 275.656 33.416L275.704 23.336H278.152L278.2 38.192H280.696L280.24 21.128L273.448 21.176C273.448 23.144 273.448 24.968 273.472 26.624C273.472 29.456 273.496 32.504 273.496 33.344C273.496 35.072 272.104 35.96 271.144 35.96L269.872 36.008L269.728 38.096L271.6 38.048ZM282.415 38H289.615V36.2H284.743C284.719 35.264 284.503 33.824 284.503 32.888V32.6L289.015 32V30.2H284.503C284.431 29.528 284.095 24.608 284.215 23H289.615V21.2C287.215 21.2 284.479 21.08 282.079 21.2L282.415 38ZM293.502 27.248C293.478 27.248 293.526 26.72 293.55 26.168L293.622 25.064L291.39 24.872V27.248H293.502ZM291.318 35.84L291.27 36.944L291.198 38.024L293.43 38.216V35.84H291.318Z" fill="white"/>
<path d="M341.67 21.6257C341.67 18.6029 339.487 16.2519 336.8 16.2519C333.106 16.084 329.411 16 325.549 16H324.961H324.373C320.511 16 316.816 16.084 313.122 16.2519C310.435 16.2519 308.252 18.6869 308.252 21.6257C308.084 23.9767 308 26.3278 308 28.6788C308 31.0299 308.084 33.3809 308.252 35.7319C308.252 38.7547 310.435 41.1057 313.122 41.1057C316.984 41.2737 320.931 41.3576 324.961 41.3576C328.991 41.3576 332.938 41.2737 336.8 41.1057C339.487 41.1057 341.67 38.6707 341.67 35.7319C341.838 33.3809 341.922 31.0299 341.922 28.5949C341.922 26.3278 341.838 23.9767 341.67 21.6257ZM321.686 35.2281V22.2135L331.342 28.7628L321.686 35.2281Z" fill="white"/>
</svg>
